<svg xmlns="http://www.w3.org/2000/svg" version="1.1" xmlns:xlink="http://www.w3.org/1999/xlink" xmlns:svgjs="http://svgjs.dev/svgjs" width="1440" height="700" preserveAspectRatio="none" viewBox="0 0 1440 700"><g mask="url(&quot;#SvgjsMask1303&quot;)" fill="none"><rect width="1440" height="700" x="0" y="0" fill="url(&quot;#SvgjsLinearGradient1304&quot;)"></rect><path d="M23 700L723 0L1434 0L734 700z" fill="url(&quot;#SvgjsLinearGradient1305&quot;)"></path><path d="M551.2 700L1251.2 0L1906.7 0L1206.7 700z" fill="url(&quot;#SvgjsLinearGradient1305&quot;)"></path><path d="M1403 700L703 0L620.5 0L1320.5 700z" fill="url(&quot;#SvgjsLinearGradient1306&quot;)"></path><path d="M906.8 700L206.79999999999995 0L22.299999999999955 0L722.3 700z" fill="url(&quot;#SvgjsLinearGradient1306&quot;)"></path><path d="M741.5092014567514 700L1440 1.5092014567513843L1440 700z" fill="url(&quot;#SvgjsLinearGradient1305&quot;)"></path><path d="M0 700L698.4907985432486 700L 0 1.5092014567513843z" fill="url(&quot;#SvgjsLinearGradient1306&quot;)"></path></g><defs><mask id="SvgjsMask1303"><rect width="1440" height="700" fill="#ffffff"></rect></mask><linearGradient x1="87.15%" y1="-26.43%" x2="12.85%" y2="126.43%" gradientUnits="userSpaceOnUse" id="SvgjsLinearGradient1304"><stop stop-color="#0e2a47" offset="0"></stop><stop stop-color="rgba(27, 57, 96, 1)" offset="1"></stop></linearGradient><linearGradient x1="0%" y1="100%" x2="100%" y2="0%" id="SvgjsLinearGradient1305"><stop stop-color="rgba(15, 70, 185, 0.2)" offset="0"></stop><stop stop-opacity="0" stop-color="rgba(15, 70, 185, 0.2)" offset="0.66"></stop></linearGradient><linearGradient x1="100%" y1="100%" x2="0%" y2="0%" id="SvgjsLinearGradient1306"><stop stop-color="rgba(15, 70, 185, 0.2)" offset="0"></stop><stop stop-opacity="0" stop-color="rgba(15, 70, 185, 0.2)" offset="0.66"></stop></linearGradient></defs></svg>